HIERARCHY
ROOT Pelvis
{
	OFFSET 0.000000 0.000000 0.000000
	CHANNELS 6 Xposition Yposition Zposition Xrotation Yrotation Zrotation
	JOINT LeftUpLeg_virtual
	{
		OFFSET 0.000000 0.000000 0.000000
		CHANNELS 3 Xrotation Yrotation Zrotation
		JOINT LeftUpLeg
		{
			OFFSET 8.479700 -4.795502 -0.379100
			CHANNELS 3 Xrotation Yrotation Zrotation
			JOINT LeftLeg
			{
				OFFSET 0.024144 -32.555107 0.112900
				CHANNELS 3 Xrotation Yrotation Zrotation
				JOINT LeftFoot
				{
					OFFSET -0.024144 -32.638630 -3.012600
					CHANNELS 3 Xrotation Yrotation Zrotation
					JOINT LeftToeBase
					{
						OFFSET 0.970200 -13.225400 11.864200
						CHANNELS 3 Xrotation Yrotation Zrotation
						End Site
						{
							OFFSET 0 0 0
						}
					}
				}
			}
		}
	}
	JOINT RightUpLeg_virtual
	{
		OFFSET 0.000000 0.000000 0.000000
		CHANNELS 3 Xrotation Yrotation Zrotation
		JOINT RightUpLeg
		{
			OFFSET -8.479700 -4.795502 -0.379100
			CHANNELS 3 Xrotation Yrotation Zrotation
			JOINT RightLeg
			{
				OFFSET -0.023144 -32.555092 0.112900
				CHANNELS 3 Xrotation Yrotation Zrotation
				JOINT RightFoot
				{
					OFFSET 0.023144 -32.638641 -3.012700
					CHANNELS 3 Xrotation Yrotation Zrotation
					JOINT RightToeBase
					{
						OFFSET -0.970200 -13.225400 11.864200
						CHANNELS 3 Xrotation Yrotation Zrotation
						End Site
						{
							OFFSET 0 0 0
						}
					}
				}
			}
		}
	}
	JOINT Hips_virtual
	{
		OFFSET 0.000000 0.000000 0.000000
		CHANNELS 3 Xrotation Yrotation Zrotation
		JOINT Hips
		{
			OFFSET -0.000000 -0.000000 -0.000000
			CHANNELS 3 Xrotation Yrotation Zrotation
			JOINT Spine
			{
				OFFSET 0.000000 7.722000 1.166200
				CHANNELS 3 Xrotation Yrotation Zrotation
				JOINT Spine1
				{
					OFFSET 0.000000 12.024101 0.248800
					CHANNELS 3 Xrotation Yrotation Zrotation
					JOINT Spine2
					{
						OFFSET 0.000000 11.502998 -0.491200
						CHANNELS 3 Xrotation Yrotation Zrotation
						JOINT Neck_virtual
						{
							OFFSET 0.000000 0.000000 0.000000
							CHANNELS 3 Xrotation Yrotation Zrotation
							JOINT Neck
							{
								OFFSET 0.000000 18.430702 -3.123100
								CHANNELS 3 Xrotation Yrotation Zrotation
								JOINT Head
								{
									OFFSET 0.000000 9.051102 1.034000
									CHANNELS 3 Xrotation Yrotation Zrotation
									End Site
									{
										OFFSET 0 0 0
									}
								}
							}
						}
						JOINT LeftShoulder_virtual
						{
							OFFSET 0.000000 0.000000 0.000000
							CHANNELS 3 Xrotation Yrotation Zrotation
							JOINT LeftShoulder
							{
								OFFSET 6.197800 13.665199 -4.064700
								CHANNELS 3 Xrotation Yrotation Zrotation
								JOINT LeftArm
								{
									OFFSET 7.778100 -0.187103 -1.709300
									CHANNELS 3 Xrotation Yrotation Zrotation
									JOINT LeftForeArm
									{
										OFFSET 22.049376 0.000000 0.000000
										CHANNELS 3 Xrotation Yrotation Zrotation
										JOINT LeftHand
										{
											OFFSET 23.009392 0.000000 0.000000
											CHANNELS 3 Xrotation Yrotation Zrotation
											End Site
											{
												OFFSET 0 0 0
											}
										}
									}
								}
							}
						}
						JOINT RightShoulder_virtual
						{
							OFFSET 0.000000 0.000000 0.000000
							CHANNELS 3 Xrotation Yrotation Zrotation
							JOINT RightShoulder
							{
								OFFSET -6.197800 13.665199 -4.064700
								CHANNELS 3 Xrotation Yrotation Zrotation
								JOINT RightArm
								{
									OFFSET -7.778100 -0.187103 -1.709300
									CHANNELS 3 Xrotation Yrotation Zrotation
									JOINT RightForeArm
									{
										OFFSET -22.049376 0.000000 0.000000
										CHANNELS 3 Xrotation Yrotation Zrotation
										JOINT RightHand
										{
											OFFSET -23.009392 0.000000 0.000000
											CHANNELS 3 Xrotation Yrotation Zrotation
											End Site
											{
												OFFSET 0 0 0
											}
										}
									}
								}
							}
						}
					}
				}
			}
		}
	}
}
MOTION
Frames: 7
Frame Time: 0.03333333
42.727135 77.488068 22.442648 0.000000 0.000000 0.000000 -10.173191 -57.637446 -10.733037 -14.356976 13.310487 5.573402 43.877624 -9.300432 1.437232 -25.646390 14.502990 4.092346 0.000000 0.000000 0.000000 -10.173191 -57.637446 -10.733037 -13.225836 15.011320 -15.810713 37.934304 -6.491176 -7.967265 32.827808 0.336332 24.603976 0.000000 0.000000 0.000000 -10.173191 -57.637446 -10.733037 0.000000 -0.000001 0.000000 9.217946 8.891334 -0.346524 2.556080 17.404592 -2.385636 0.000000 0.000000 0.000000 3.099506 13.576348 -1.746531 -0.834489 -4.108952 0.255298 0.000000 0.000000 0.000000 3.099506 13.576348 -1.746531 -6.510681 -24.283962 -29.301515 -16.491709 27.629864 -48.402761 0.000004 -37.042356 -0.000010 0.000000 0.000000 0.000000 3.099506 13.576348 -1.746531 16.094132 -29.062592 21.606098 17.231230 -22.622065 41.644811 -179.999991 66.592480 -180.000005 0.000000 0.000000 0.000000 
42.757996 77.381042 23.375675 0.000000 0.000000 0.000000 -10.765941 -56.872390 -11.138198 -13.379737 13.281744 4.540063 44.087748 -9.779686 1.734632 -26.406135 14.687178 4.966447 0.000000 0.000000 0.000000 -10.765941 -56.872390 -11.138198 -15.748244 16.735437 -13.678834 43.667913 -5.689501 -8.348130 30.408190 1.858059 22.103976 0.000000 0.000000 0.000000 -10.765941 -56.872390 -11.138198 0.000000 0.000002 0.000000 9.663948 7.953987 -0.488819 2.662959 17.145943 -2.401210 0.000000 0.000000 0.000000 3.209016 13.582544 -1.840704 -0.835034 -4.107087 0.327522 0.000000 0.000000 0.000000 3.209016 13.582544 -1.840704 -6.690963 -24.917027 -29.325755 -17.150494 26.242823 -47.937727 0.000002 -37.261397 0.000001 0.000000 0.000000 0.000000 3.209016 13.582544 -1.840704 16.288814 -29.166721 21.993795 17.892154 -24.268781 42.118730 -179.999964 66.114551 179.999964 0.000000 0.000000 0.000000 
42.782734 77.371529 24.308393 0.000000 0.000000 0.000000 -11.219110 -55.884499 -11.540936 -12.305890 13.222328 3.701251 43.934434 -9.971260 1.998894 -26.889823 14.347767 5.662900 0.000000 0.000000 0.000000 -11.219110 -55.884499 -11.540936 -18.338496 18.040669 -11.172106 49.253976 -5.504214 -8.521105 26.405400 4.284696 19.412537 0.000000 0.000000 0.000000 -11.219110 -55.884499 -11.540936 0.000000 -0.000001 0.000000 10.077597 6.904579 -0.425760 2.778479 16.848641 -2.408986 0.000000 0.000000 0.000000 3.327778 13.548345 -1.925066 -0.836518 -4.091357 0.390946 0.000000 0.000000 0.000000 3.327778 13.548345 -1.925066 -6.858131 -25.585236 -29.281233 -17.849562 24.629988 -47.582014 0.000004 -37.102390 0.000007 0.000000 0.000000 0.000000 3.327778 13.548345 -1.925066 16.428058 -29.286154 22.283888 18.343095 -25.660573 42.553042 -179.999937 65.956063 179.999937 0.000000 0.000000 0.000000 
42.788433 77.434525 25.234180 0.000000 0.000000 0.000000 -11.428271 -54.633003 -11.826328 -11.238707 13.132394 3.106686 43.512058 -9.935251 2.169549 -27.146822 13.445081 6.212167 0.000000 0.000000 0.000000 -11.428271 -54.633003 -11.826328 -20.793307 18.836565 -8.568944 54.020188 -5.736803 -8.416793 22.169022 7.578519 16.923651 0.000000 0.000000 0.000000 -11.428271 -54.633003 -11.826328 0.000000 0.000001 0.000000 10.411350 5.687639 -0.200838 2.886334 16.500549 -2.402981 0.000000 0.000000 0.000000 3.439226 13.460944 -1.993052 -0.825260 -4.058136 0.451981 0.000000 0.000000 0.000000 3.439226 13.460944 -1.993052 -7.018226 -26.326411 -29.169303 -18.434949 23.003987 -47.374014 -0.000007 -36.923262 -0.000007 0.000000 0.000000 0.000000 3.439226 13.460944 -1.993052 16.511894 -29.414695 22.476723 18.832075 -26.862719 43.040495 -179.999896 65.978651 179.999882 0.000000 0.000000 0.000000 
42.769054 77.539398 26.148546 0.000000 0.000000 0.000000 -11.345234 -53.125481 -11.914999 -10.253034 13.012749 2.730404 42.921933 -9.920601 2.217248 -27.261365 12.193220 6.726295 0.000000 0.000000 0.000000 -11.345234 -53.125481 -11.914999 -23.066199 19.184120 -6.068863 57.733984 -6.244530 -8.066486 18.449965 11.383630 15.011793 0.000000 0.000000 0.000000 -11.345234 -53.125481 -11.914999 0.000000 -0.000001 0.000000 10.641970 4.288295 0.121066 2.977886 16.101298 -2.382549 0.000000 0.000000 0.000000 3.534444 13.319117 -2.043647 -0.797121 -4.009263 0.517362 0.000000 0.000000 0.000000 3.534444 13.319117 -2.043647 -7.175197 -27.162815 -28.995201 -18.803854 21.533245 -47.316115 -0.000002 -37.046721 0.000003 0.000000 0.000000 0.000000 3.534444 13.319117 -2.043647 16.548162 -29.518022 22.591575 19.288140 -27.835973 43.500440 -179.999937 66.130902 179.999923 0.000000 0.000000 0.000000 
42.729031 77.671677 27.056862 0.000000 0.000000 0.000000 -11.002245 -51.420499 -11.804339 -9.350894 12.851255 2.513391 42.186759 -9.910890 2.142140 -27.258593 10.663620 7.190319 0.000000 0.000000 0.000000 -11.002245 -51.420499 -11.804339 -25.159164 19.207779 -3.787973 60.342413 -6.976449 -7.532970 15.395788 15.224131 13.807209 0.000000 0.000000 0.000000 -11.002245 -51.420499 -11.804339 0.000000 -0.000003 0.000000 10.776630 2.744326 0.492098 3.054877 15.663581 -2.352307 0.000000 0.000000 0.000000 3.615016 13.134275 -2.081373 -0.759839 -3.950814 0.589089 0.000000 0.000000 0.000000 3.615016 13.134275 -2.081373 -7.328472 -28.082430 -28.771106 -18.947618 20.246110 -47.384495 0.000016 -37.580281 0.000018 0.000000 0.000000 0.000000 3.615016 13.134275 -2.081373 16.552035 -29.563019 22.660659 19.613132 -28.573963 43.849688 -179.999923 66.371469 179.999937 0.000000 0.000000 0.000000 
42.678318 77.834518 27.969181 0.000000 0.000000 0.000000 -10.489987 -49.611304 -11.559217 -8.487689 12.645083 2.417452 41.275789 -9.940039 1.948384 -27.103143 9.009123 7.547818 0.000000 0.000000 0.000000 -10.489987 -49.611304 -11.559217 -27.086951 19.044920 -1.769355 61.894409 -7.889182 -6.889841 12.773477 18.562400 13.283547 0.000000 0.000000 0.000000 -10.489987 -49.611304 -11.559217 0.000000 0.000001 0.000000 10.848946 1.134778 0.892839 3.124945 15.209489 -2.318311 0.000000 0.000000 0.000000 3.688571 12.927048 -2.112487 -0.727498 -3.890691 0.664600 0.000000 0.000000 0.000000 3.688571 12.927048 -2.112487 -7.472658 -29.045362 -28.509206 -18.940825 19.036823 -47.549615 0.000022 -38.405693 0.000047 0.000000 0.000000 0.000000 3.688571 12.927048 -2.112487 16.545752 -29.539192 22.725673 19.657132 -29.065307 44.001622 -179.999991 66.696770 -180.000005 0.000000 0.000000 0.000000 
